<mxfile host="drawio-plugin" modified="2023-02-12T18:16:08.365Z" agent="5.0 (X11; Linux x86_64) AppleWebKit/537.36 (KHTML, like Gecko) Chrome/104.0.5112.102 Safari/537.36" etag="hLz2Lq3RCSpcgH0a-kXG" version="20.5.3" type="embed"><diagram name="Page-1" id="oBorpOqPXida0Boxa0tn"><mxGraphModel dx="2270" dy="896" grid="1" gridSize="10" guides="1" tooltips="1" connect="1" arrows="1" fold="1" page="1" pageScale="1" pageWidth="850" pageHeight="1100" math="0" shadow="0"><root><mxCell id="0"/><mxCell id="1" parent="0"/><mxCell id="q00nxQbJWBcTZr3gt5vw-1" value="&lt;b style=&quot;font-size: 16px;&quot;&gt;page&lt;/b&gt;" style="rounded=0;whiteSpace=wrap;html=1;fontSize=16;" parent="1" vertex="1"><mxGeometry x="120" y="200" width="200" height="40" as="geometry"/></mxCell><mxCell id="q00nxQbJWBcTZr3gt5vw-6" value="" style="group" parent="1" connectable="0" vertex="1"><mxGeometry x="120" y="240" width="200" height="40" as="geometry"/></mxCell><mxCell id="q00nxQbJWBcTZr3gt5vw-2" value="&lt;b&gt;string&lt;/b&gt;" style="rounded=0;whiteSpace=wrap;html=1;" parent="q00nxQbJWBcTZr3gt5vw-6" vertex="1"><mxGeometry width="80" height="40" as="geometry"/></mxCell><mxCell id="q00nxQbJWBcTZr3gt5vw-3" value="&lt;b&gt;id&lt;/b&gt;" style="rounded=0;whiteSpace=wrap;html=1;" parent="q00nxQbJWBcTZr3gt5vw-6" vertex="1"><mxGeometry x="80" width="120" height="40" as="geometry"/></mxCell><mxCell id="q00nxQbJWBcTZr3gt5vw-7" value="" style="group" parent="1" connectable="0" vertex="1"><mxGeometry x="120" y="280" width="200" height="40" as="geometry"/></mxCell><mxCell id="q00nxQbJWBcTZr3gt5vw-4" value="string" style="rounded=0;whiteSpace=wrap;html=1;" parent="q00nxQbJWBcTZr3gt5vw-7" vertex="1"><mxGeometry width="80" height="40" as="geometry"/></mxCell><mxCell id="q00nxQbJWBcTZr3gt5vw-5" value="path" style="rounded=0;whiteSpace=wrap;html=1;" parent="q00nxQbJWBcTZr3gt5vw-7" vertex="1"><mxGeometry x="80" width="120" height="40" as="geometry"/></mxCell><mxCell id="q00nxQbJWBcTZr3gt5vw-8" value="" style="group" parent="1" connectable="0" vertex="1"><mxGeometry x="120" y="360" width="200" height="40" as="geometry"/></mxCell><mxCell id="q00nxQbJWBcTZr3gt5vw-9" value="string" style="rounded=0;whiteSpace=wrap;html=1;" parent="q00nxQbJWBcTZr3gt5vw-8" vertex="1"><mxGeometry width="80" height="40" as="geometry"/></mxCell><mxCell id="q00nxQbJWBcTZr3gt5vw-10" value="name" style="rounded=0;whiteSpace=wrap;html=1;" parent="q00nxQbJWBcTZr3gt5vw-8" vertex="1"><mxGeometry x="80" width="120" height="40" as="geometry"/></mxCell><mxCell id="U49gReD8Onm2mdh760gp-1" value="" style="group" parent="1" connectable="0" vertex="1"><mxGeometry x="120" y="320" width="200" height="40" as="geometry"/></mxCell><mxCell id="U49gReD8Onm2mdh760gp-2" value="string" style="rounded=0;whiteSpace=wrap;html=1;" parent="U49gReD8Onm2mdh760gp-1" vertex="1"><mxGeometry width="80" height="40" as="geometry"/></mxCell><mxCell id="U49gReD8Onm2mdh760gp-3" value="alias" style="rounded=0;whiteSpace=wrap;html=1;" parent="U49gReD8Onm2mdh760gp-1" vertex="1"><mxGeometry x="80" width="120" height="40" as="geometry"/></mxCell><mxCell id="U49gReD8Onm2mdh760gp-4" value="" style="group" parent="1" connectable="0" vertex="1"><mxGeometry x="120" y="400" width="200" height="40" as="geometry"/></mxCell><mxCell id="U49gReD8Onm2mdh760gp-5" value="enum" style="rounded=0;whiteSpace=wrap;html=1;" parent="U49gReD8Onm2mdh760gp-4" vertex="1"><mxGeometry width="80" height="40" as="geometry"/></mxCell><mxCell id="U49gReD8Onm2mdh760gp-6" value="status" style="rounded=0;whiteSpace=wrap;html=1;" parent="U49gReD8Onm2mdh760gp-4" vertex="1"><mxGeometry x="80" width="120" height="40" as="geometry"/></mxCell><mxCell id="U49gReD8Onm2mdh760gp-7" value="" style="group" parent="1" connectable="0" vertex="1"><mxGeometry x="120" y="440" width="200" height="40" as="geometry"/></mxCell><mxCell id="U49gReD8Onm2mdh760gp-8" value="string" style="rounded=0;whiteSpace=wrap;html=1;" parent="U49gReD8Onm2mdh760gp-7" vertex="1"><mxGeometry width="80" height="40" as="geometry"/></mxCell><mxCell id="U49gReD8Onm2mdh760gp-9" value="title" style="rounded=0;whiteSpace=wrap;html=1;" parent="U49gReD8Onm2mdh760gp-7" vertex="1"><mxGeometry x="80" width="120" height="40" as="geometry"/></mxCell><mxCell id="U49gReD8Onm2mdh760gp-10" value="" style="group" parent="1" connectable="0" vertex="1"><mxGeometry x="120" y="480" width="200" height="40" as="geometry"/></mxCell><mxCell id="U49gReD8Onm2mdh760gp-11" value="string" style="rounded=0;whiteSpace=wrap;html=1;" parent="U49gReD8Onm2mdh760gp-10" vertex="1"><mxGeometry width="80" height="40" as="geometry"/></mxCell><mxCell id="U49gReD8Onm2mdh760gp-12" value="description" style="rounded=0;whiteSpace=wrap;html=1;" parent="U49gReD8Onm2mdh760gp-10" vertex="1"><mxGeometry x="80" width="120" height="40" as="geometry"/></mxCell><mxCell id="U49gReD8Onm2mdh760gp-13" value="" style="group" parent="1" connectable="0" vertex="1"><mxGeometry x="120" y="560" width="200" height="40" as="geometry"/></mxCell><mxCell id="U49gReD8Onm2mdh760gp-14" value="json" style="rounded=0;whiteSpace=wrap;html=1;" parent="U49gReD8Onm2mdh760gp-13" vertex="1"><mxGeometry width="80" height="40" as="geometry"/></mxCell><mxCell id="U49gReD8Onm2mdh760gp-15" value="value" style="rounded=0;whiteSpace=wrap;html=1;" parent="U49gReD8Onm2mdh760gp-13" vertex="1"><mxGeometry x="80" width="120" height="40" as="geometry"/></mxCell><mxCell id="U49gReD8Onm2mdh760gp-41" value="&lt;b style=&quot;font-size: 16px;&quot;&gt;settings&lt;/b&gt;" style="rounded=0;whiteSpace=wrap;html=1;fontSize=16;" parent="1" vertex="1"><mxGeometry x="-200" y="200" width="200" height="40" as="geometry"/></mxCell><mxCell id="U49gReD8Onm2mdh760gp-42" value="" style="group" parent="1" connectable="0" vertex="1"><mxGeometry x="-200" y="240" width="200" height="40" as="geometry"/></mxCell><mxCell id="U49gReD8Onm2mdh760gp-43" value="&lt;b&gt;json(value)&lt;/b&gt;" style="rounded=0;whiteSpace=wrap;html=1;" parent="U49gReD8Onm2mdh760gp-42" vertex="1"><mxGeometry width="80" height="40" as="geometry"/></mxCell><mxCell id="U49gReD8Onm2mdh760gp-44" value="&lt;b&gt;name&lt;/b&gt;" style="rounded=0;whiteSpace=wrap;html=1;" parent="U49gReD8Onm2mdh760gp-42" vertex="1"><mxGeometry x="80" width="120" height="40" as="geometry"/></mxCell><mxCell id="3" style="edgeStyle=orthogonalEdgeStyle;rounded=0;orthogonalLoop=1;jettySize=auto;html=1;exitX=0.5;exitY=1;exitDx=0;exitDy=0;exitPerimeter=0;entryX=1;entryY=0.5;entryDx=0;entryDy=0;" parent="1" source="2" target="U49gReD8Onm2mdh760gp-44" edge="1"><mxGeometry relative="1" as="geometry"><Array as="points"><mxPoint x="50" y="260"/></Array></mxGeometry></mxCell><mxCell id="2" value="name: layout&lt;br&gt;value: {&lt;br&gt;layoutId: 1&lt;br&gt;}" style="shape=card;whiteSpace=wrap;html=1;" parent="1" vertex="1"><mxGeometry x="120" y="20" width="140" height="100" as="geometry"/></mxCell><mxCell id="4" value="&lt;b style=&quot;font-size: 16px;&quot;&gt;user&lt;/b&gt;" style="rounded=0;whiteSpace=wrap;html=1;fontSize=16;" parent="1" vertex="1"><mxGeometry x="400" y="200" width="200" height="40" as="geometry"/></mxCell><mxCell id="5" value="" style="group" parent="1" connectable="0" vertex="1"><mxGeometry x="400" y="240" width="200" height="40" as="geometry"/></mxCell><mxCell id="6" value="&lt;b&gt;string&lt;/b&gt;" style="rounded=0;whiteSpace=wrap;html=1;" parent="5" vertex="1"><mxGeometry width="80" height="40" as="geometry"/></mxCell><mxCell id="7" value="&lt;b&gt;id&lt;/b&gt;" style="rounded=0;whiteSpace=wrap;html=1;" parent="5" vertex="1"><mxGeometry x="80" width="120" height="40" as="geometry"/></mxCell><mxCell id="8" value="" style="group" parent="1" connectable="0" vertex="1"><mxGeometry x="400" y="280" width="200" height="40" as="geometry"/></mxCell><mxCell id="9" value="string" style="rounded=0;whiteSpace=wrap;html=1;" parent="8" vertex="1"><mxGeometry width="80" height="40" as="geometry"/></mxCell><mxCell id="10" value="email" style="rounded=0;whiteSpace=wrap;html=1;" parent="8" vertex="1"><mxGeometry x="80" width="120" height="40" as="geometry"/></mxCell><mxCell id="11" value="" style="group" parent="1" connectable="0" vertex="1"><mxGeometry x="400" y="320" width="200" height="40" as="geometry"/></mxCell><mxCell id="12" value="string" style="rounded=0;whiteSpace=wrap;html=1;" parent="11" vertex="1"><mxGeometry width="80" height="40" as="geometry"/></mxCell><mxCell id="13" value="hash" style="rounded=0;whiteSpace=wrap;html=1;" parent="11" vertex="1"><mxGeometry x="80" width="120" height="40" as="geometry"/></mxCell><mxCell id="14" value="" style="group" parent="1" connectable="0" vertex="1"><mxGeometry x="400" y="360" width="200" height="40" as="geometry"/></mxCell><mxCell id="15" value="string" style="rounded=0;whiteSpace=wrap;html=1;" parent="14" vertex="1"><mxGeometry width="80" height="40" as="geometry"/></mxCell><mxCell id="16" value="hashedRt" style="rounded=0;whiteSpace=wrap;html=1;" parent="14" vertex="1"><mxGeometry x="80" width="120" height="40" as="geometry"/></mxCell><mxCell id="17" value="&lt;b style=&quot;font-size: 16px;&quot;&gt;layouts&lt;/b&gt;" style="rounded=0;whiteSpace=wrap;html=1;fontSize=16;" parent="1" vertex="1"><mxGeometry x="-560" y="200" width="200" height="40" as="geometry"/></mxCell><mxCell id="18" value="" style="group" parent="1" connectable="0" vertex="1"><mxGeometry x="-560" y="240" width="200" height="40" as="geometry"/></mxCell><mxCell id="19" value="&lt;b&gt;string&lt;/b&gt;" style="rounded=0;whiteSpace=wrap;html=1;" parent="18" vertex="1"><mxGeometry width="80" height="40" as="geometry"/></mxCell><mxCell id="20" value="&lt;b&gt;id&lt;/b&gt;" style="rounded=0;whiteSpace=wrap;html=1;" parent="18" vertex="1"><mxGeometry x="80" width="120" height="40" as="geometry"/></mxCell><mxCell id="21" value="" style="group" parent="1" connectable="0" vertex="1"><mxGeometry x="-560" y="280" width="200" height="40" as="geometry"/></mxCell><mxCell id="22" value="string" style="rounded=0;whiteSpace=wrap;html=1;" parent="21" vertex="1"><mxGeometry width="80" height="40" as="geometry"/></mxCell><mxCell id="23" value="alias" style="rounded=0;whiteSpace=wrap;html=1;" parent="21" vertex="1"><mxGeometry x="80" width="120" height="40" as="geometry"/></mxCell><mxCell id="24" value="" style="group" parent="1" connectable="0" vertex="1"><mxGeometry x="-560" y="320" width="200" height="40" as="geometry"/></mxCell><mxCell id="25" value="string" style="rounded=0;whiteSpace=wrap;html=1;" parent="24" vertex="1"><mxGeometry width="80" height="40" as="geometry"/></mxCell><mxCell id="26" value="name" style="rounded=0;whiteSpace=wrap;html=1;" parent="24" vertex="1"><mxGeometry x="80" width="120" height="40" as="geometry"/></mxCell><mxCell id="27" value="" style="group" parent="1" connectable="0" vertex="1"><mxGeometry x="-560" y="360" width="200" height="40" as="geometry"/></mxCell><mxCell id="28" value="string" style="rounded=0;whiteSpace=wrap;html=1;" parent="27" vertex="1"><mxGeometry width="80" height="40" as="geometry"/></mxCell><mxCell id="29" value="primaryColor" style="rounded=0;whiteSpace=wrap;html=1;" parent="27" vertex="1"><mxGeometry x="80" width="120" height="40" as="geometry"/></mxCell><mxCell id="31" value="" style="group" parent="1" connectable="0" vertex="1"><mxGeometry x="-560" y="400" width="200" height="40" as="geometry"/></mxCell><mxCell id="32" value="string" style="rounded=0;whiteSpace=wrap;html=1;" parent="31" vertex="1"><mxGeometry width="80" height="40" as="geometry"/></mxCell><mxCell id="33" value="secondaryColor" style="rounded=0;whiteSpace=wrap;html=1;" parent="31" vertex="1"><mxGeometry x="80" width="120" height="40" as="geometry"/></mxCell><mxCell id="34" value="" style="group" parent="1" connectable="0" vertex="1"><mxGeometry x="-560" y="440" width="200" height="40" as="geometry"/></mxCell><mxCell id="35" value="string" style="rounded=0;whiteSpace=wrap;html=1;" parent="34" vertex="1"><mxGeometry width="80" height="40" as="geometry"/></mxCell><mxCell id="36" value="primaryLightColor" style="rounded=0;whiteSpace=wrap;html=1;" parent="34" vertex="1"><mxGeometry x="80" width="120" height="40" as="geometry"/></mxCell><mxCell id="40" value="" style="group" parent="1" connectable="0" vertex="1"><mxGeometry x="-560" y="480" width="200" height="40" as="geometry"/></mxCell><mxCell id="41" value="string" style="rounded=0;whiteSpace=wrap;html=1;" parent="40" vertex="1"><mxGeometry width="80" height="40" as="geometry"/></mxCell><mxCell id="42" value="secondaryLightColor" style="rounded=0;whiteSpace=wrap;html=1;" parent="40" vertex="1"><mxGeometry x="80" width="120" height="40" as="geometry"/></mxCell><mxCell id="43" value="" style="group" parent="1" connectable="0" vertex="1"><mxGeometry x="-560" y="520" width="200" height="40" as="geometry"/></mxCell><mxCell id="44" value="string" style="rounded=0;whiteSpace=wrap;html=1;" parent="43" vertex="1"><mxGeometry width="80" height="40" as="geometry"/></mxCell><mxCell id="45" value="primaryBackgroundgColor" style="rounded=0;whiteSpace=wrap;html=1;" parent="43" vertex="1"><mxGeometry x="80" width="120" height="40" as="geometry"/></mxCell><mxCell id="46" value="" style="group" parent="1" connectable="0" vertex="1"><mxGeometry x="-560" y="560" width="200" height="40" as="geometry"/></mxCell><mxCell id="47" value="string" style="rounded=0;whiteSpace=wrap;html=1;" parent="46" vertex="1"><mxGeometry width="80" height="40" as="geometry"/></mxCell><mxCell id="48" value="secondaryBackgroundColor" style="rounded=0;whiteSpace=wrap;html=1;" parent="46" vertex="1"><mxGeometry x="80" width="120" height="40" as="geometry"/></mxCell><mxCell id="57" value="Database" style="text;html=1;strokeColor=none;fillColor=none;align=center;verticalAlign=middle;whiteSpace=wrap;rounded=0;fontSize=40;" parent="1" vertex="1"><mxGeometry x="-120" y="20" width="210" height="90" as="geometry"/></mxCell><mxCell id="58" value="" style="group" parent="1" connectable="0" vertex="1"><mxGeometry x="120" y="520" width="200" height="40" as="geometry"/></mxCell><mxCell id="59" value="json" style="rounded=0;whiteSpace=wrap;html=1;" parent="58" vertex="1"><mxGeometry width="80" height="40" as="geometry"/></mxCell><mxCell id="60" value="schema" style="rounded=0;whiteSpace=wrap;html=1;" parent="58" vertex="1"><mxGeometry x="80" width="120" height="40" as="geometry"/></mxCell><mxCell id="64" value="" style="group" parent="1" connectable="0" vertex="1"><mxGeometry x="120" y="600" width="200" height="40" as="geometry"/></mxCell><mxCell id="65" value="json" style="rounded=0;whiteSpace=wrap;html=1;" parent="64" vertex="1"><mxGeometry width="80" height="40" as="geometry"/></mxCell><mxCell id="66" value="config" style="rounded=0;whiteSpace=wrap;html=1;" parent="64" vertex="1"><mxGeometry x="80" width="120" height="40" as="geometry"/></mxCell><mxCell id="67" value="" style="group" parent="1" connectable="0" vertex="1"><mxGeometry x="-560" y="600" width="200" height="40" as="geometry"/></mxCell><mxCell id="68" value="bool" style="rounded=0;whiteSpace=wrap;html=1;" parent="67" vertex="1"><mxGeometry width="80" height="40" as="geometry"/></mxCell><mxCell id="69" value="isDefault" style="rounded=0;whiteSpace=wrap;html=1;" parent="67" vertex="1"><mxGeometry x="80" width="120" height="40" as="geometry"/></mxCell></root></mxGraphModel></diagram></mxfile>